<svg version="1.1" id="Layer_1" xmlns="http://www.w3.org/2000/svg" xmlns:xlink="http://www.w3.org/1999/xlink" x="0px" y="0px"
	 width="100%" viewBox="0 0 500 500" enable-background="new 0 0 500 500" xml:space="preserve">

<path fill="#FC4C6A" opacity="1.000000" stroke="none" 
	d="
M141.373962,448.639191 
	C120.294983,406.823578 98.656616,365.737152 73.786339,326.452087 
	C60.510559,305.481689 46.595036,284.947327 30.016649,266.366669 
	C29.386393,265.660309 28.940559,264.789368 28.090275,263.519440 
	C38.088398,259.289490 47.621872,255.012222 57.388046,251.356628 
	C59.080013,250.723328 62.255337,252.152786 63.900299,253.594101 
	C77.293457,265.329071 90.850418,276.915466 103.655228,289.274750 
	C124.056221,308.965881 142.667175,330.296448 158.848175,353.640350 
	C164.139984,361.274689 169.028534,369.188599 174.638580,377.798981 
	C177.348999,371.930756 179.563858,366.982513 181.903168,362.093811 
	C214.598923,293.765961 254.878937,230.207489 301.768005,170.749802 
	C326.145355,139.838074 352.287842,110.568832 380.600952,83.224457 
	C407.146698,57.586967 435.918335,34.788990 467.656860,14.718617 
	C473.409729,22.424643 479.134613,30.093168 484.880066,37.789234 
	C475.603546,46.628128 466.512695,55.126991 457.602600,63.811295 
	C433.590363,87.214935 411.571625,112.410873 390.833130,138.731155 
	C338.881714,204.665329 296.610229,276.285095 264.766022,353.993530 
	C252.260651,384.510040 241.819809,415.722198 232.923477,447.492462 
	C229.314926,460.379120 222.002228,471.520508 211.350876,479.832214 
	C194.735687,492.797821 172.115784,489.909027 157.841888,472.765198 
	C151.718719,465.410889 146.949265,456.929413 141.373962,448.639191 
z"/>
</svg>